# xmcd CD database file
#
# Track frame offsets:
#	150
#	13998
#	26382
#	44280
#	57094
#	68929
#	82309
#	96250
#	110664
#	131776
#	142960
#	154518
#	169344
#	183248
#	207288
#	218970
#	233349
#	248610
#	258151
#	271296
#	285887
#	306885
#	316417
#	328042
#	341012
#
# Disc length: 4707 seconds
#
# Revision: 1
# Processed by: cddbd v1.5.2PL0 Copyright (c) Steve Scherf et al.
# Submitted via: CDex 1.51
#
DISCID=67126119
DTITLE=Various Artist - Zoom-TP60-D-4
DYEAR=1900
DGENRE=Blues
TTITLE0=The Beach Boys - God Only Knows
TTITLE1=Elvis Presley - Good Luck Charm
TTITLE2=The Beach Boys - Good Vibrations
TTITLE3=Cliff Bennett and The Reble Rousers - Got To Get Into My Life
TTITLE4=Billy Fury - Halfway To Paradise
TTITLE5=Neil Sedaka - Happy Birthday Sweet Sixteen
TTITLE6=The Turtles - Happy Together
TTITLE7=The Honeycombs - Have I The Right
TTITLE8=The Hollies - He Ain't Heavy He's My Brother
TTITLE9=Ricky Nelson - Hello Mary Lou
TTITLE10=The Beatles - Help
TTITLE11=The Tremeloes - Here Comes My Baby
TTITLE12=The Fortunes - Here Comes That Rainy Day Feeling Again
TTITLE13=The Beatles - Hey Jude
TTITLE14=Bruce Channel - Hey Baby
TTITLE15=Jeff Beck - Hi Ho Silver Lining
TTITLE16=Amen Corner - High In The Sky
TTITLE17=Ray Charles - Hit The Road Jack
TTITLE18=Dave Dee Dozy Beaky Mick and Tich - Hold Tight
TTITLE19=The Rolling Stones - Honky Tonk Women
TTITLE20=The Animals - House Of The Rising Sun
TTITLE21=Gerry and The Pacemakers - How Do You Do
TTITLE22=Timi Yuro - Hurt
TTITLE23=The Four Tops - I Can't Help Myself (Sugar pie honeybunch)
TTITLE24=The Hollies - I Can't Let Go
EXTD=
EXTT0=
EXTT1=
EXTT2=
EXTT3=
EXTT4=
EXTT5=
EXTT6=
EXTT7=
EXTT8=
EXTT9=
EXTT10=
EXTT11=
EXTT12=
EXTT13=
EXTT14=
EXTT15=
EXTT16=
EXTT17=
EXTT18=
EXTT19=
EXTT20=
EXTT21=
EXTT22=
EXTT23=
EXTT24=
PLAYORDER=
